<svg xmlns="http://www.w3.org/2000/svg" viewBox="0 0 442.16 592.88"><defs><style>.cls-1{fill:#fff;}</style></defs><title>tapHand</title><g id="Layer_2" data-name="Layer 2"><g id="Capa_1" data-name="Capa 1"><path class="cls-1" d="M97.91,229.5V206.55c-23-19.12-38.25-47.81-38.25-80.32C59.66,68.85,107.47,21,164.84,21S270,68.85,270,126.23c0,24.86-9.56,49.72-24.86,66.93,7.65,0,13.39,1.92,21,3.83,15.3-21,23-45.9,23-72.68a124.32,124.32,0,0,0-248.63,0C40.53,168.3,63.48,206.55,97.91,229.5Z"/><path class="cls-1" d="M250.91,124.31a86.07,86.07,0,0,0-172.13,0c0,21,7.65,40.16,19.13,53.55V124.31c0-36.34,30.6-66.94,66.94-66.94s66.93,30.6,66.93,66.94v53.55C243.26,164.48,250.91,145.35,250.91,124.31Z"/><path class="cls-1" d="M394.34,267.75a47,47,0,0,0-28.68,9.56h0a47.35,47.35,0,0,0-47.82-47.81A51.94,51.94,0,0,0,285.33,241c-7.65-19.13-24.86-30.6-44-30.6a47,47,0,0,0-28.68,9.56V124.31a47.82,47.82,0,0,0-95.63,0V294.53C78.78,260.1,36.71,233.33,9.93,260.1-28.32,298.35,52,372.94,113.21,485.78c44,78.41,105.19,107.1,166.39,107.1A162.43,162.43,0,0,0,442.16,430.31V315.56A47.35,47.35,0,0,0,394.34,267.75ZM423,357.64v72.67c0,74.59-65,143.44-143.44,143.44-72.67,0-114.75-40.16-149.17-95.62C55.83,351.9,2.28,294.53,23.32,273.49S96,298.35,136.16,340.43V124.31c0-15.3,13.38-28.69,28.68-28.69s28.69,13.39,28.69,28.69V325.12h19.13V258.19c0-15.3,13.38-28.69,28.69-28.69S270,242.89,270,258.19V306h19.13V277.31c0-15.3,13.39-28.69,28.69-28.69s28.68,13.39,28.68,28.69v47.81h19.13v-9.56c0-15.3,13.39-28.69,28.69-28.69S423,300.26,423,315.56v42.08Z"/></g></g></svg>