<!-- Generator: Adobe Illustrator 19.0.0, SVG Export Plug-In  -->
<svg version="1.1"
	 xmlns="http://www.w3.org/2000/svg" xmlns:xlink="http://www.w3.org/1999/xlink" xmlns:a="http://ns.adobe.com/AdobeSVGViewerExtensions/3.0/"
	 x="0px" y="0px" width="25.149px" height="59.524px" viewBox="0 0 25.149 59.524"
	 style="enable-background:new 0 0 25.149 59.524;" xml:space="preserve">
<style type="text/css">
	.st0{fill:#FFFFFF;}
	.st1{font-family:'Montserrat-Black';}
	.st2{font-size:50px;}
	.st3{letter-spacing:1;}
</style>
<defs>
</defs>
<g id="XMLID_15_">
	<path id="XMLID_17_" class="st0" d="M9.201,13.823c1.35,0.9,1.95,2.351,1.95,3.9c0,3-2.15,5.101-5.15,5.101
		c-2.7,0-5.101-1.75-5.101-5.051c0-1.55,0.55-2.85,1.35-4l4.351-6.301h5.2L9.201,13.823z M20.101,13.823
		c1.35,0.9,1.95,2.351,1.95,3.9c0,3-2.15,5.101-5.15,5.101c-2.7,0-5.1-1.75-5.1-5.051c0-1.55,0.55-2.85,1.35-4l4.35-6.301h5.2
		L20.101,13.823z"/>
</g>
</svg>